<?xml version="1.0" encoding="UTF-8"?>
<svg version="1.1" xmlns="http://www.w3.org/2000/svg" width="435" height="564">
<path d="M0 0 C1.19795328 -0.00569124 2.39590657 -0.01138248 3.63016146 -0.01724619 C4.97146005 -0.01853894 6.31275874 -0.01972694 7.6540575 -0.02082157 C9.06972752 -0.02555029 10.48539618 -0.03070089 11.90106326 -0.03623921 C15.80516857 -0.05017479 19.70926454 -0.05773722 23.61338842 -0.0642122 C26.95862869 -0.07057482 30.30385355 -0.08064609 33.64908423 -0.09077286 C44.67233319 -0.12412765 55.69559152 -0.145624 66.71887442 -0.16397271 C69.58836461 -0.16876611 72.4578544 -0.17374962 75.32734418 -0.17877793 C93.13780556 -0.20974755 110.94827015 -0.23643947 128.75875092 -0.25319672 C132.88586591 -0.25714637 137.01298084 -0.26114934 141.14009571 -0.2652216 C142.67880217 -0.26673414 142.67880217 -0.26673414 144.24859361 -0.26827724 C160.86925084 -0.28528729 177.48975927 -0.32639886 194.11034384 -0.37724458 C211.16571768 -0.42899215 228.22101496 -0.45813522 245.27646667 -0.4653936 C254.85598645 -0.4700595 264.43526255 -0.48484871 274.0147047 -0.5251379 C282.17254538 -0.55940598 290.33009844 -0.57339036 298.48800697 -0.56071376 C302.65104411 -0.55487923 306.81347275 -0.55880581 310.9764185 -0.5888834 C314.78829917 -0.61619993 318.59913774 -0.61578325 322.41104112 -0.59337295 C324.44184151 -0.58861566 326.4726448 -0.61344141 328.50328559 -0.63934225 C338.3805197 -0.53687453 338.3805197 -0.53687453 342.70657539 3.06032372 C346.63487688 7.09841509 346.54734271 10.48182003 346.54088974 15.92515755 C346.54531687 17.15123261 346.54531687 17.15123261 346.54983345 18.40207687 C346.55856986 21.17063573 346.56010919 23.93915303 346.56171131 26.70772457 C346.56643918 28.70086623 346.57158967 30.69400692 346.57712895 32.68714648 C346.59107371 38.18747302 346.59862954 43.68779291 346.60510194 49.18813264 C346.61146167 53.9001074 346.62153333 58.61207119 346.6316626 63.32403912 C346.66502684 78.85116085 346.68655523 94.37829175 346.70486245 109.90543696 C346.70962911 113.94659388 346.71463796 117.98775047 346.71966767 122.02890706 C346.75071237 147.10549139 346.77733507 172.18207836 346.79408646 197.25867653 C346.79802381 203.07020924 346.80203563 208.88174189 346.80611134 214.6932745 C346.806613 215.41529728 346.80711467 216.13732005 346.80763154 216.88122231 C346.82405168 240.29385548 346.86251041 263.70638417 346.91339844 287.11896594 C346.96560272 311.1809297 346.9983985 335.24283783 347.00566399 359.30485938 C347.00669261 362.70239057 347.00792894 366.09992166 347.00928402 369.49745274 C347.00954206 370.16613261 347.00980009 370.83481248 347.01006595 371.52375537 C347.0144727 381.62456083 347.03576386 391.72524263 347.06602764 401.82600117 C347.10026461 413.31422057 347.11429262 424.8022359 347.1016035 436.29050341 C347.09576189 442.15469662 347.09974655 448.0184579 347.12977314 453.88258648 C347.15702625 459.24872436 347.1567194 464.6141212 347.13426269 469.98027477 C347.1310257 471.92380998 347.13798944 473.86739383 347.15605991 475.81084772 C347.17911477 478.44988966 347.16527573 481.08626905 347.14216232 483.72525215 C347.15763856 484.48279455 347.17311479 485.24033696 347.18906 486.02083519 C347.08671229 491.30204624 345.47712849 493.9725419 341.88284094 497.80672567 C339.21882845 500.20343622 337.29671654 500.27664028 333.81234074 500.3243084 C332.83960846 500.33986682 331.86687619 500.35542524 330.86466718 500.37145513 C329.25004452 500.38959582 329.25004452 500.38959582 327.60280323 500.40810299 C326.46505506 500.42447986 325.3273069 500.44085673 324.15508151 500.45772988 C320.98686501 500.50184144 317.81863211 500.54128488 314.65032673 500.57837236 C312.62423475 500.60260006 310.59817485 500.62867232 308.57211399 500.65536976 C282.0731026 501.00414054 255.57275706 501.20505865 229.07198429 501.36180687 C225.7064207 501.38207191 222.34085983 501.4027362 218.97530079 501.42374325 C218.13884926 501.42894858 217.30239772 501.4341539 216.44059917 501.43951697 C202.93294263 501.52591555 189.42747337 501.69301382 175.92104748 501.89130472 C162.03312279 502.09348462 148.14633094 502.21083949 134.25698161 502.25042492 C125.70335766 502.27735651 117.15551393 502.36803724 108.603623 502.54332346 C102.72147008 502.65744967 96.84235944 502.68808916 90.95920482 502.6563512 C87.57209574 502.64042243 84.20322674 502.67036782 80.81655216 502.7757864 C68.1975751 503.14852673 58.09362538 502.77273815 48.46444194 493.94231458 C43.38027905 489.02005776 38.86201122 483.62455112 34.40108204 478.1398077 C33.10081219 476.62576003 31.79370936 475.11753217 30.47741032 473.61739922 C29.68393834 472.7091124 29.68393834 472.7091124 28.87443662 471.78247637 C26.57662838 469.22060996 24.16275273 466.80823566 21.71358204 464.3898077 C21.20738331 463.88739559 20.70118458 463.38498348 20.17964649 462.86734676 C18.58926354 461.28898058 16.99563759 459.71395761 15.40108204 458.1398077 C2.75047225 445.65108872 2.75047225 445.65108872 -1.69483757 440.21656448 C-3.58700346 438.04383962 -3.58700346 438.04383962 -6.0723114 436.17507094 C-10.88018954 432.18272624 -14.05628622 428.89330058 -14.74009937 422.47253307 C-14.93257874 418.65595606 -14.90366744 414.8592347 -14.84183788 411.0395422 C-14.85050426 409.30345799 -14.8635439 407.56739109 -14.88055801 405.83136863 C-14.91446183 401.07807317 -14.88624058 396.32689264 -14.84752846 391.57370913 C-14.81662342 386.44137898 -14.84349082 381.30930376 -14.86301708 376.17696285 C-14.89204836 366.13052824 -14.86762656 356.08490283 -14.8247906 346.03854493 C-14.7767405 334.33953416 -14.78020104 322.64070821 -14.78540242 310.94162067 C-14.79278032 290.06977087 -14.75115043 269.19830217 -14.68290234 248.32657528 C-14.6166955 228.07159452 -14.58839027 207.81701362 -14.60087109 187.56192684 C-14.6143965 165.5030755 -14.60948749 143.44439159 -14.57015228 121.38556498 C-14.56807331 120.2193766 -14.56599434 119.05318821 -14.56385237 117.85166078 C-14.55967059 115.5094309 -14.55544864 113.16720109 -14.55118603 110.82497135 C-14.53739178 102.66881781 -14.53605667 94.51271584 -14.53895092 86.35655308 C-14.54182909 76.42018161 -14.52247122 66.48413629 -14.4750582 56.54787306 C-14.45132498 51.47756027 -14.43709626 46.40770228 -14.44873333 41.33733654 C-14.45906944 36.69675017 -14.44173064 32.05712501 -14.40218413 27.41670319 C-14.39269681 25.73723821 -14.39331485 24.05767974 -14.40500486 22.37822864 C-14.49378129 8.26112538 -14.49378129 8.26112538 -10.67461681 3.65735054 C-6.63770441 0.35302837 -5.10540087 0.01409636 0 0 Z " fill="#FEFEFE" transform="translate(51.598917961120605,31.86019229888916)"/>
</svg>
